# xmcd
# 
# Track frame offsets:
#     150
#     20601
#     43339
#     60455
#     78983
#     103175
#     116574
#     138155
#     160374
#     182176
#     201171
# 
# Disc length: 2971
# 
# Revision: 3
# Processed by: cddbd v1.5.2PL0 Copyright (c) Steve Scherf et al.
# Submitted via: fre:ac v1.0.31
# 
DISCID=980b990b
DTITLE=Gretchen Peters - Blackbirds
DYEAR=2015
DGENRE=Country
TTITLE0=Blackbirds
TTITLE1=Pretty Things
TTITLE2=When All You Got Is A Hammer
TTITLE3=Everything Falls Away
TTITLE4=The House On Auburn Street
TTITLE5=When You Comin' Home
TTITLE6=Jubilee
TTITLE7=Black Ribbons
TTITLE8=Nashville
TTITLE9=The Cure For The Pain
TTITLE10=Blackbirds (Reprise)
EXTD=
EXTT0=
EXTT1=
EXTT2=
EXTT3=
EXTT4=
EXTT5=
EXTT6=
EXTT7=
EXTT8=
EXTT9=
EXTT10=
PLAYORDER=
